<svg xmlns="http://www.w3.org/2000/svg" viewBox="0 0 64 64" role="img" aria-label="HR AI Platform">
  <defs>
    <linearGradient id="bg" x1="8" y1="6" x2="58" y2="60" gradientUnits="userSpaceOnUse">
      <stop stop-color="#0B73FF"/>
      <stop offset="1" stop-color="#6D5DFB"/>
    </linearGradient>
    <linearGradient id="ai" x1="16" y1="10" x2="46" y2="31" gradientUnits="userSpaceOnUse">
      <stop stop-color="#FFC700"/>
      <stop offset="1" stop-color="#FF9F0A"/>
    </linearGradient>
  </defs>
  <rect width="64" height="64" rx="16" fill="url(#bg)"/>
  <rect x="10" y="13" width="44" height="38" rx="10" fill="#FFFFFF" opacity="0.96"/>
  <path d="M17 17h24c3 0 5 3 4 6l-2 8c-1 3-3 5-7 5H17c-3 0-5-2-5-5v-9c0-3 2-5 5-5Z" fill="url(#ai)"/>
  <text x="18" y="32" font-family="Inter, Arial, sans-serif" font-size="17" font-weight="900" fill="#fff">AI</text>
  <rect x="15" y="38" width="16" height="10" rx="4" fill="#DCEBFF"/>
  <circle cx="23" cy="34" r="5" fill="#73B7FF"/>
  <path d="M17 47c1-5 4-8 6-8s5 3 6 8" fill="#0B73FF" opacity="0.95"/>
  <rect x="35" y="39" width="13" height="3" rx="1.5" fill="#0B73FF" opacity="0.72"/>
  <rect x="35" y="45" width="17" height="3" rx="1.5" fill="#0B73FF" opacity="0.35"/>
  <circle cx="46" cy="19" r="3" fill="#34C759"/>
  <circle cx="52" cy="25" r="3" fill="#FFC700"/>
  <path d="M48 33l2 4 4 .5-3 3 .8 4-3.8-2-3.8 2 .8-4-3-3 4-.5 2-4Z" fill="#FFC700"/>
</svg>
