<svg xmlns="http://www.w3.org/2000/svg" viewBox="0 0 512 512" role="img" aria-label="HR AI Platform app icon">
  <defs>
    <linearGradient id="bg" x1="50" y1="36" x2="458" y2="484" gradientUnits="userSpaceOnUse">
      <stop stop-color="#0B73FF"/>
      <stop offset="1" stop-color="#6D5DFB"/>
    </linearGradient>
    <linearGradient id="card" x1="90" y1="86" x2="420" y2="426" gradientUnits="userSpaceOnUse">
      <stop stop-color="#FFFFFF"/>
      <stop offset="1" stop-color="#EAF4FF"/>
    </linearGradient>
    <linearGradient id="ai" x1="122" y1="92" x2="352" y2="272" gradientUnits="userSpaceOnUse">
      <stop stop-color="#FFC700"/>
      <stop offset="1" stop-color="#FF9F0A"/>
    </linearGradient>
  </defs>
  <rect width="512" height="512" rx="112" fill="url(#bg)"/>
  <rect x="76" y="98" width="360" height="314" rx="56" fill="url(#card)"/>
  <path d="M128 132h196c25 0 42 23 35 47l-21 72c-7 24-29 40-54 40H128c-25 0-44-20-44-44v-71c0-25 19-44 44-44Z" fill="url(#ai)"/>
  <text x="132" y="250" font-family="Inter, Arial, sans-serif" font-size="108" font-weight="900" fill="#fff">AI</text>
  <rect x="116" y="306" width="116" height="72" rx="28" fill="#DCEBFF"/>
  <circle cx="174" cy="278" r="38" fill="#73B7FF"/>
  <path d="M126 378c9-44 31-68 48-68s39 24 48 68" fill="#0B73FF" opacity="0.96"/>
  <rect x="260" y="312" width="116" height="20" rx="10" fill="#0B73FF" opacity="0.72"/>
  <rect x="260" y="352" width="146" height="20" rx="10" fill="#0B73FF" opacity="0.35"/>
  <circle cx="382" cy="140" r="22" fill="#34C759"/>
  <circle cx="428" cy="190" r="22" fill="#FFC700"/>
  <path d="M390 256l18 37 41 6-30 29 7 41-36-19-36 19 7-41-30-29 41-6 18-37Z" fill="#FFC700"/>
</svg>
